<svg width="261" height="80" viewBox="0 0 261 80" fill="none" xmlns="http://www.w3.org/2000/svg">
<path d="M83.3779 46.6697C82.2305 46.0156 81.2825 45.0611 80.6355 43.9086C79.9621 42.7032 79.6183 41.3411 79.6389 39.9599C79.6144 38.5712 79.9623 37.2013 80.6464 35.9931C81.2964 34.8391 82.2483 33.8845 83.3997 33.2319C84.4195 32.6642 85.5513 32.3275 86.7152 32.2457C87.8791 32.1639 89.0467 32.3389 90.1357 32.7584C91.0237 33.1076 91.8299 33.6372 92.5035 34.3138L91.2269 36.0841C90.6581 35.591 90.0116 35.1959 89.3137 34.9148C88.6498 34.6478 87.9414 34.5094 87.226 34.5069C86.3285 34.499 85.4467 34.7425 84.68 35.2099C83.9095 35.6835 83.2812 36.3569 82.8614 37.1587C82.4263 38.0282 82.1996 38.9874 82.1996 39.9599C82.1996 40.9325 82.4263 41.8917 82.8614 42.7611C83.274 43.5622 83.9005 44.2328 84.671 44.6984C85.4416 45.164 86.3261 45.4064 87.226 45.3984C88.7427 45.3984 90.1721 44.7719 91.5178 43.5042L92.7581 45.3256C91.5574 46.5479 89.9887 47.3409 88.2937 47.5825C86.5987 47.824 84.8714 47.5008 83.3779 46.6624V46.6697Z" fill="#B2693E"/>
<path d="M98.0864 46.6697C96.941 46.0094 95.9909 45.0566 95.3331 43.9085C94.6651 42.698 94.3147 41.3375 94.3147 39.9544C94.3147 38.5713 94.6651 37.2108 95.3331 36.0003C95.9876 34.8479 96.9383 33.8919 98.0864 33.2319C99.2529 32.5765 100.568 32.2323 101.905 32.2323C103.243 32.2323 104.558 32.5765 105.724 33.2319C106.878 33.8884 107.833 34.8449 108.489 36.0003C109.157 37.2108 109.507 38.5713 109.507 39.9544C109.507 41.3375 109.157 42.698 108.489 43.9085C107.83 45.0595 106.875 46.0129 105.724 46.6697C104.557 47.3227 103.242 47.6656 101.905 47.6656C100.568 47.6656 99.2537 47.3227 98.0864 46.6697ZM104.47 44.699C105.24 44.2304 105.869 43.5605 106.288 42.7611C106.745 41.899 106.976 40.9355 106.961 39.9599C106.975 38.9809 106.744 38.014 106.288 37.1478C105.871 36.3449 105.242 35.672 104.47 35.2026C103.703 34.747 102.828 34.5066 101.936 34.5066C101.045 34.5066 100.17 34.747 99.4031 35.2026C98.6242 35.671 97.9878 36.3436 97.5627 37.1478C97.0987 38.0113 96.8633 38.9794 96.8789 39.9599C96.8624 40.937 97.0979 41.9018 97.5627 42.7611C97.99 43.5618 98.6261 44.2315 99.4031 44.699C100.171 45.152 101.045 45.3909 101.936 45.3909C102.827 45.3909 103.702 45.152 104.47 44.699Z" fill="#B2693E"/>
<path d="M115.629 46.9502C114.73 46.4869 113.99 45.7651 113.504 44.8775C112.979 43.89 112.719 42.7831 112.748 41.6647V32.5872H115.268V41.6647C115.214 42.6581 115.542 43.6348 116.185 44.393C116.889 45.035 117.808 45.3907 118.76 45.3907C119.713 45.3907 120.631 45.035 121.335 44.393C121.978 43.6348 122.307 42.6581 122.252 41.6647V32.5872H124.772V41.6647C124.801 42.7826 124.541 43.889 124.019 44.8775C123.534 45.7631 122.798 46.4845 121.903 46.9502C120.924 47.4224 119.852 47.6676 118.766 47.6676C117.679 47.6676 116.607 47.4224 115.629 46.9502Z" fill="#B2693E"/>
<path d="M131.748 46.6697C130.6 46.0161 129.65 45.0616 129.002 43.9086C128.342 42.6941 127.997 41.3335 127.997 39.9508C127.997 38.5682 128.342 37.2075 129.002 35.9931C129.654 34.8403 130.605 33.8861 131.756 33.2319C132.774 32.6668 133.903 32.3316 135.064 32.2498C136.225 32.168 137.39 32.3416 138.477 32.7584C139.364 33.108 140.169 33.6376 140.841 34.3138L139.601 36.0841C139.033 35.5903 138.386 35.195 137.688 34.9148C137.019 34.646 136.306 34.5075 135.585 34.5069C134.688 34.4984 133.806 34.742 133.039 35.2099C132.269 35.6838 131.641 36.357 131.221 37.1587C130.786 38.0282 130.559 38.9873 130.559 39.9599C130.559 40.9325 130.786 41.8917 131.221 42.7611C131.635 43.5644 132.263 44.2365 133.037 44.7022C133.81 45.168 134.698 45.409 135.6 45.3984C137.117 45.3984 138.546 44.7719 139.892 43.5042L141.132 45.3255C139.932 46.5481 138.364 47.3413 136.67 47.5829C134.975 47.8245 133.248 47.5011 131.756 46.6624L131.748 46.6697Z" fill="#B2693E"/>
<path d="M146.453 46.6697C145.307 46.0104 144.357 45.0574 143.7 43.9085C143.032 42.698 142.681 41.3375 142.681 39.9544C142.681 38.5713 143.032 37.2108 143.7 36.0003C144.353 34.847 145.304 33.8908 146.453 33.2319C147.62 32.5765 148.935 32.2323 150.272 32.2323C151.61 32.2323 152.925 32.5765 154.091 33.2319C155.245 33.8891 156.201 34.8454 156.859 36.0003C157.525 37.2116 157.874 38.5718 157.874 39.9544C157.874 41.3371 157.525 42.6973 156.859 43.9085C156.198 45.0589 155.243 46.012 154.091 46.6697C152.924 47.3227 151.609 47.6656 150.272 47.6656C148.935 47.6656 147.621 47.3227 146.453 46.6697ZM152.836 44.699C153.606 44.2294 154.235 43.5597 154.655 42.7611C155.113 41.8997 155.345 40.9357 155.328 39.9599C155.343 38.9808 155.112 38.0137 154.655 37.1478C154.237 36.3456 153.608 35.6731 152.836 35.2026C152.07 34.747 151.195 34.5066 150.303 34.5066C149.412 34.5066 148.537 34.747 147.77 35.2026C146.992 35.672 146.356 36.3443 145.93 37.1478C145.467 38.0119 145.232 38.9796 145.246 39.9599C145.231 40.9368 145.466 41.9012 145.93 42.7611C146.358 43.561 146.994 44.2305 147.77 44.699C148.538 45.152 149.412 45.3909 150.303 45.3909C151.194 45.3909 152.069 45.152 152.836 44.699Z" fill="#B2693E"/>
<path d="M163.995 46.9502C163.097 46.4869 162.357 45.7651 161.871 44.8775C161.345 43.8903 161.083 42.7834 161.111 41.6647V32.5872H163.635V41.6647C163.58 42.6581 163.908 43.6348 164.552 44.393C165.256 45.035 166.174 45.3907 167.127 45.3907C168.079 45.3907 168.997 45.035 169.702 44.393C170.344 43.6344 170.671 42.6577 170.615 41.6647V32.5872H173.139V41.6647C173.167 42.7826 172.908 43.889 172.386 44.8775C171.901 45.7631 171.164 46.4845 170.269 46.9502C169.291 47.4224 168.218 47.6676 167.132 47.6676C166.046 47.6676 164.974 47.4224 163.995 46.9502Z" fill="#B2693E"/>
<path d="M188.902 47.7553L179.42 37.982V47.3291H176.94V32.1683H177.169L186.655 42.0472V32.5763H189.135V47.7443L188.902 47.7553Z" fill="#B2693E"/>
<path d="M193.205 47.329V32.5872H195.729V47.329H193.205Z" fill="#B2693E"/>
<path d="M201.069 46.8555C200.068 46.3376 199.217 45.5697 198.599 44.6262L200.261 43.2784C201.299 44.8083 202.665 45.572 204.36 45.5696C205.137 45.6125 205.908 45.4071 206.561 44.9831C206.814 44.8146 207.02 44.5853 207.162 44.3161C207.304 44.047 207.376 43.7466 207.372 43.4423C207.379 43.1468 207.311 42.8542 207.175 42.5919C207.039 42.3295 206.839 42.1058 206.593 41.9415C205.871 41.4641 205.093 41.0775 204.277 40.7905C203.466 40.4801 202.674 40.1262 201.902 39.7304C201.316 39.4054 200.807 38.9596 200.407 38.4227C199.951 37.7878 199.722 37.0181 199.756 36.2371C199.733 35.6855 199.838 35.136 200.06 34.6309C200.283 34.1258 200.618 33.6784 201.04 33.323C201.891 32.5945 203.044 32.2484 204.488 32.2484C205.458 32.234 206.42 32.4317 207.306 32.8276C208.111 33.1842 208.802 33.7565 209.303 34.4814L207.706 35.7854C207.335 35.302 206.852 34.9155 206.299 34.6587C205.746 34.4019 205.14 34.2823 204.531 34.3102C203.909 34.2708 203.291 34.44 202.774 34.791C202.604 34.9237 202.463 35.0892 202.358 35.2777C202.253 35.4661 202.186 35.6738 202.162 35.8883C202.139 36.1029 202.158 36.32 202.22 36.5269C202.281 36.7338 202.383 36.9264 202.52 37.0932C202.799 37.3936 203.131 37.6405 203.498 37.8217C204.068 38.1053 204.651 38.3582 205.248 38.5794C206.067 38.8953 206.87 39.254 207.652 39.6539C208.272 39.9846 208.811 40.4486 209.23 41.0126C209.689 41.6466 209.923 42.4158 209.896 43.1982C209.913 44.0345 209.67 44.8554 209.201 45.5478C208.714 46.2328 208.043 46.7658 207.266 47.085C206.366 47.4559 205.399 47.6381 204.426 47.6204C203.262 47.6382 202.11 47.3758 201.069 46.8555Z" fill="#B2693E"/>
<path d="M226.703 47.329L233.199 32.2521H233.305L239.804 47.329H238.713L237.222 43.7702H229.267L227.776 47.329H226.703ZM229.613 42.9287H236.913L233.276 34.1863L229.613 42.9287Z" fill="#B2693E"/>
<path d="M245.631 47.6677L240.204 32.5871H241.274L245.711 45.4348L250.192 32.4014H250.294L254.775 45.4348L259.212 32.5871H260.285L254.858 47.6677H254.731L250.254 34.7982L245.755 47.6677H245.631Z" fill="#B2693E"/>
<path d="M218.651 47.329V32.5872H219.662V46.4293H225.674L225.281 47.3326L218.651 47.329Z" fill="#B2693E"/>
<path d="M64.5884 10.1849L65.1303 8.89171L65.0976 8.86621L63.9483 9.6676L51.582 24.9668C51.8038 25.1343 52.0221 25.3019 52.233 25.4804L64.5884 10.1849Z" fill="#DAB79F"/>
<path d="M61.3405 7.7698L61.766 6.42202L61.7297 6.40381L60.6713 7.31447L49.938 23.8339C50.1745 23.9796 50.4145 24.1144 50.6437 24.2674L61.3405 7.7698Z" fill="#DCBAA4"/>
<path d="M57.8561 5.69345L58.1216 4.31653H58.0889L57.1287 5.33647L48.1995 22.8868C48.4468 23.0034 48.7014 23.1163 48.9269 23.2511L57.8561 5.69345Z" fill="#DEBEA9"/>
<path d="M54.1826 4.01783L54.299 2.62634H54.2626L53.4006 3.72642L46.3518 22.1145C46.6137 22.2056 46.8719 22.293 47.1265 22.395L54.1826 4.01783Z" fill="#DFC2AE"/>
<path d="M50.349 2.72471L50.3199 1.32593H50.2799L49.5525 2.52436L44.4604 21.5499C44.7296 21.6155 44.9987 21.6774 45.2606 21.7539L50.349 2.72471Z" fill="#E1C6B3"/>
<path d="M46.4027 1.84327L46.2245 0.451782H46.1881L45.5916 1.71942L42.5146 21.1785C42.7837 21.2149 43.0602 21.2513 43.3257 21.3023L46.4027 1.84327Z" fill="#E3CAB8"/>
<path d="M42.3836 1.37686L42.0635 0.0108643H42.0235L41.5652 1.32222L40.5323 20.9926C40.8087 20.9926 41.0851 21.0144 41.3579 21.0326L42.3836 1.37686Z" fill="#E5CEBD"/>
<path d="M38.3392 1.32229L37.8773 0H37.8373L37.5209 1.366L38.5502 21.0363C38.823 21.0181 39.0994 21.0036 39.3758 20.9963L38.3392 1.32229Z" fill="#E7D2C3"/>
<path d="M34.3128 1.71575L33.7163 0.444458H33.6763L33.5054 1.83596L36.5788 21.2914C36.8479 21.2404 37.1243 21.204 37.3971 21.1675L34.3128 1.71575Z" fill="#E9D6C8"/>
<path d="M30.3484 2.51348L29.6209 1.3114H29.5846L29.5555 2.71018L34.6475 21.7358C34.913 21.6593 35.1821 21.5937 35.4477 21.5318L30.3484 2.51348Z" fill="#EBDACE"/>
<path d="M26.4856 3.72281L25.6382 2.60815L25.6018 2.62637L25.7218 4.01786L32.767 22.3987C33.0216 22.2967 33.2834 22.2093 33.5417 22.1182L26.4856 3.72281Z" fill="#EDDFD4"/>
<path d="M22.7758 5.32923L21.812 4.302L21.7792 4.3275L22.0448 5.70078L30.9594 23.2511C31.2031 23.12 31.4577 23.0107 31.705 22.8868L22.7758 5.32923Z" fill="#F0E3D9"/>
<path d="M19.2515 7.31809L18.1858 6.422L18.1567 6.4475L18.564 7.78799L29.2645 24.271C29.49 24.118 29.7337 23.9796 29.9665 23.8303L19.2515 7.31809Z" fill="#F2E8E0"/>
<path d="M15.9379 9.66395L14.7886 8.86621L14.7631 8.89536L15.3051 10.1849L27.6714 25.484C27.8823 25.3019 28.1005 25.1197 28.3188 24.9668L15.9379 9.66395Z" fill="#F5ECE6"/>
<path d="M10.1622 15.332L8.87104 14.8002L8.84558 14.8293L9.64576 15.9804L24.9218 28.3654C25.0927 28.1469 25.2564 27.921 25.431 27.7134L10.1622 15.332Z" fill="#DAB79F"/>
<path d="M7.75077 18.5811L6.40866 18.1768L6.38684 18.2132L7.3034 19.2732L23.7942 29.9972C23.9397 29.7604 24.0743 29.52 24.2271 29.2905L7.75077 18.5811Z" fill="#DCBAA4"/>
<path d="M5.68857 22.0854L4.31372 21.8195V21.8559L5.33212 22.8139L22.8486 31.7493C22.9686 31.498 23.0777 31.2466 23.2123 31.0208L5.68857 22.0854Z" fill="#DEBEA9"/>
<path d="M4.00454 25.7535L2.61151 25.637V25.6734L3.72448 26.5221L22.0848 33.5779C22.1757 33.3193 22.263 33.0607 22.3685 32.8021L4.00454 25.7535Z" fill="#DFC2AE"/>
<path d="M2.71331 29.5966L1.31665 29.6221V29.6621L2.51327 30.3907L21.5101 35.4904C21.5719 35.2208 21.641 34.9513 21.7138 34.689L2.71331 29.5966Z" fill="#E1C6B3"/>
<path d="M1.83306 33.5452L0.443665 33.72V33.7601L1.70939 34.3575L21.139 37.4392C21.1754 37.166 21.2118 36.8964 21.2627 36.6269L1.83306 33.5452Z" fill="#E3CAB8"/>
<path d="M1.36759 37.5703L0.00366211 37.8909V37.9309L1.32395 38.3899L20.9645 39.4208C20.9645 39.1476 20.9864 38.8707 21.0082 38.5975L1.36759 37.5703Z" fill="#E5CEBD"/>
<path d="M1.32393 41.621L0 42.0836V42.1201L1.36393 42.437L21.0045 41.4025C20.9863 41.1329 20.9718 40.8561 20.9645 40.5792L1.32393 41.621Z" fill="#E7D2C3"/>
<path d="M1.70225 45.6534L0.436523 46.2508V46.2909L1.82591 46.4621L21.2519 43.3841C21.2046 43.1145 21.1646 42.8413 21.1282 42.5681L1.70225 45.6534Z" fill="#E9D6C8"/>
<path d="M2.50234 49.624L1.30573 50.3525V50.3889L2.70602 50.4181L21.6992 45.3184C21.6264 45.0524 21.561 44.7829 21.4955 44.517L2.50234 49.624Z" fill="#EBDACE"/>
<path d="M3.71356 53.4924L2.59332 54.3411L2.61514 54.3739L4.00454 54.2573L22.3612 47.2197C22.2594 46.9647 22.1721 46.7025 22.0775 46.4438L3.71356 53.4924Z" fill="#EDDFD4"/>
<path d="M5.31747 57.208L4.29907 58.1733L4.32089 58.2061L5.6921 57.9402L23.2122 49.012C23.0813 48.7716 22.9758 48.513 22.8485 48.2653L5.31747 57.208Z" fill="#F0E3D9"/>
<path d="M7.29976 60.7413L6.38684 61.7903L6.4123 61.8195L7.75076 61.4115L24.2379 50.6875C24.0815 50.4617 23.947 50.2176 23.8015 49.9845L7.29976 60.7413Z" fill="#F2E8E0"/>
<path d="M9.64212 64.0452L8.84558 65.1963L8.87467 65.2218L10.1622 64.6754L25.4382 52.2903C25.2564 52.0791 25.0745 51.8642 24.9218 51.6383L9.64212 64.0452Z" fill="#F5ECE6"/>
<path d="M15.3015 69.8042L14.7595 71.0973L14.7923 71.1228L15.9416 70.3251L28.3079 55.026C28.0897 54.8584 27.8678 54.6908 27.6568 54.516L15.3015 69.8042Z" fill="#DAB79F"/>
<path d="M18.5495 72.2303L18.1458 73.578L18.1821 73.5999L19.2369 72.6856L29.9483 56.1734C29.7119 56.0241 29.4682 55.8893 29.2427 55.7363L18.5495 72.2303Z" fill="#DCBAA4"/>
<path d="M22.0375 74.2993L21.7683 75.6762L21.8047 75.6944L22.7613 74.6672L31.6941 57.1205C31.4431 56.9966 31.1885 56.891 30.9485 56.7562L22.0375 74.2993Z" fill="#DEBEA9"/>
<path d="M25.7109 75.9968L25.5909 77.3919H25.6309L26.4783 76.2772L33.5271 57.8891C33.2689 57.7981 33.007 57.7106 32.7488 57.6086L25.7109 75.9968Z" fill="#DFC2AE"/>
<path d="M29.5444 77.279L29.5699 78.6778H29.6099L30.3373 77.4793L35.4293 58.4537C35.1602 58.3918 34.8874 58.3263 34.6292 58.2498L29.5444 77.279Z" fill="#E1C6B3"/>
<path d="M33.4908 78.1823L33.6654 79.5738H33.7054L34.2983 78.3061L37.3971 58.8325C37.1243 58.7961 36.8516 58.7596 36.5824 58.7123L33.4908 78.1823Z" fill="#E3CAB8"/>
<path d="M37.5062 78.6268L37.8299 79.9891H37.8699L38.3246 78.6668L39.3539 58.9965C39.0775 58.9965 38.8047 58.9746 38.5319 58.9564L37.5062 78.6268Z" fill="#E5CEBD"/>
<path d="M41.5544 78.6704L42.0127 80H42.0527L42.3691 78.634L41.3362 58.9636C41.0634 58.9855 40.7906 58.9964 40.5142 59.0073L41.5544 78.6704Z" fill="#E7D2C3"/>
<path d="M45.5806 78.2916L46.1771 79.5592H46.2171L46.3881 78.1677L43.3111 58.7123C43.0456 58.7596 42.7728 58.7961 42.4963 58.8361L45.5806 78.2916Z" fill="#E9D6C8"/>
<path d="M49.5415 77.4902L50.269 78.6887H50.3053L50.3344 77.2899L45.2424 58.2643C44.9769 58.3408 44.7114 58.4063 44.4386 58.4719L49.5415 77.4902Z" fill="#EBDACE"/>
<path d="M53.4006 76.2809L54.248 77.3992L54.2808 77.3773L54.1644 75.9858L47.1338 57.6013C46.8792 57.7033 46.6173 57.7944 46.3591 57.8891L53.4006 76.2809Z" fill="#EDDFD4"/>
<path d="M57.1177 74.6708L58.0815 75.698L58.1143 75.6725L57.8488 74.2992L48.9269 56.7526C48.6832 56.8873 48.4286 56.993 48.1776 57.1168L57.1177 74.6708Z" fill="#F0E3D9"/>
<path d="M60.642 72.6856L61.7041 73.6036L61.7368 73.5745L61.3258 72.234L50.6144 55.7218C50.3889 55.8784 50.1489 56.0132 49.9125 56.1589L60.642 72.6856Z" fill="#F2E8E0"/>
<path d="M63.9483 70.3397L65.0976 71.1375L65.1267 71.1083L64.5811 69.8188L52.2148 54.5197C52.0002 54.7018 51.782 54.8839 51.5638 55.0406L63.9483 70.3397Z" fill="#F5ECE6"/>
<path d="M47.2683 31.9206C47.2149 31.9694 47.1726 32.0291 47.1443 32.0957C47.1161 32.1624 47.1025 32.2343 47.1046 32.3067C47.1018 32.3792 47.115 32.4514 47.1433 32.5181C47.1716 32.5849 47.2143 32.6445 47.2683 32.6928C47.3721 32.7936 47.511 32.85 47.6556 32.85C47.8003 32.85 47.9392 32.7936 48.043 32.6928L50.8545 29.8443L50.0871 29.0757L47.2683 31.9206Z" fill="#C28763"/>
<path d="M67.0072 11.9516L51.1528 27.8227L49.0687 25.7354L49.0615 24.8721L48.1267 25.801L54.1244 31.8223L55.0628 30.8934L54.2008 30.8679L52.1058 28.788L67.9564 12.9097L68.4438 11.4672L67.0072 11.9516Z" fill="#C28763"/>
<path d="M31.8505 32.6819C31.8995 32.7347 31.9589 32.7769 32.0249 32.8057C32.0909 32.8346 32.1621 32.8494 32.2342 32.8494C32.3062 32.8494 32.3774 32.8346 32.4435 32.8057C32.5095 32.7769 32.5689 32.7347 32.6179 32.6819C32.7185 32.5779 32.7748 32.4388 32.7748 32.294C32.7748 32.1491 32.7185 32.01 32.6179 31.906L29.7918 29.0757L29.0317 29.8443L31.8505 32.6819Z" fill="#C28763"/>
<path d="M11.9262 12.9132L27.7768 28.7916L25.6927 30.8752L24.8271 30.8861L25.7582 31.8222L31.7704 25.8119L30.8429 24.8721L30.8138 25.739L28.737 27.8335L12.8864 11.9588L11.446 11.4744L11.9262 12.9132Z" fill="#C28763"/>
<path d="M32.6288 48.0976C32.6814 48.049 32.7232 47.9898 32.7514 47.9239C32.7796 47.858 32.7936 47.7869 32.7925 47.7152C32.7953 47.6427 32.7821 47.5705 32.7538 47.5037C32.7255 47.437 32.6828 47.3773 32.6288 47.329C32.5254 47.2274 32.3863 47.1704 32.2415 47.1704C32.0966 47.1704 31.9575 47.2274 31.8541 47.329L29.0317 50.1594L29.7991 50.928L32.6288 48.0976Z" fill="#C28763"/>
<path d="M12.89 68.0521L28.7443 52.1774L30.8284 54.2683L30.8356 55.1352L31.7704 54.1991L25.7691 48.1814L24.8307 49.1066L25.6964 49.1358L27.7877 51.2194L11.937 67.0904L11.4533 68.5329L12.89 68.0521Z" fill="#C28763"/>
</svg>
